<mxfile host="Electron" modified="2023-06-23T16:29:33.030Z" agent="Mozilla/5.0 (Macintosh; Intel Mac OS X 10_15_7) AppleWebKit/537.36 (KHTML, like Gecko) draw.io/21.3.7 Chrome/112.0.5615.204 Electron/24.5.0 Safari/537.36" version="21.3.7" etag="NGZEikvS6utlYnjZp5dg" type="device">
  <diagram id="OUcwJTHvT7vjzToPtKVa" name="Página-1">
    <mxGraphModel dx="1536" dy="1114" grid="1" gridSize="10" guides="1" tooltips="1" connect="1" arrows="1" fold="1" page="1" pageScale="1" pageWidth="827" pageHeight="1169" math="0" shadow="0">
      <root>
        <mxCell id="0" />
        <mxCell id="1" parent="0" />
        <mxCell id="d0DCQELx7WO_pI59iYUC-54" value="" style="edgeStyle=orthogonalEdgeStyle;rounded=0;orthogonalLoop=1;jettySize=auto;html=1;" edge="1" parent="1" source="6" target="d0DCQELx7WO_pI59iYUC-53">
          <mxGeometry relative="1" as="geometry" />
        </mxCell>
        <mxCell id="6" value="Almacenamiento de &lt;br&gt;supermercados" style="html=1;dashed=0;whitespace=wrap;" parent="1" vertex="1">
          <mxGeometry x="130" y="330" width="140" height="50" as="geometry" />
        </mxCell>
        <mxCell id="d0DCQELx7WO_pI59iYUC-51" style="edgeStyle=orthogonalEdgeStyle;rounded=0;orthogonalLoop=1;jettySize=auto;html=1;entryX=0.5;entryY=0;entryDx=0;entryDy=0;" edge="1" parent="1" source="29" target="6">
          <mxGeometry relative="1" as="geometry" />
        </mxCell>
        <mxCell id="29" value="INICIO" style="html=1;dashed=0;whitespace=wrap;shape=mxgraph.dfd.start" parent="1" vertex="1">
          <mxGeometry x="160" y="250" width="80" height="30" as="geometry" />
        </mxCell>
        <mxCell id="50" value="FIN" style="html=1;dashed=0;whitespace=wrap;shape=mxgraph.dfd.start" parent="1" vertex="1">
          <mxGeometry x="373" y="950" width="80" height="30" as="geometry" />
        </mxCell>
        <mxCell id="d0DCQELx7WO_pI59iYUC-57" value="" style="edgeStyle=orthogonalEdgeStyle;rounded=0;orthogonalLoop=1;jettySize=auto;html=1;" edge="1" parent="1" source="d0DCQELx7WO_pI59iYUC-53" target="d0DCQELx7WO_pI59iYUC-56">
          <mxGeometry relative="1" as="geometry" />
        </mxCell>
        <mxCell id="d0DCQELx7WO_pI59iYUC-53" value="Parsear productos scrapeados" style="whiteSpace=wrap;html=1;dashed=0;" vertex="1" parent="1">
          <mxGeometry x="360" y="325" width="120" height="60" as="geometry" />
        </mxCell>
        <mxCell id="d0DCQELx7WO_pI59iYUC-59" value="" style="edgeStyle=orthogonalEdgeStyle;rounded=0;orthogonalLoop=1;jettySize=auto;html=1;" edge="1" parent="1" source="d0DCQELx7WO_pI59iYUC-56" target="d0DCQELx7WO_pI59iYUC-58">
          <mxGeometry relative="1" as="geometry" />
        </mxCell>
        <mxCell id="d0DCQELx7WO_pI59iYUC-56" value="Parsear packs scrapeados" style="whiteSpace=wrap;html=1;dashed=0;" vertex="1" parent="1">
          <mxGeometry x="360" y="480" width="120" height="60" as="geometry" />
        </mxCell>
        <mxCell id="d0DCQELx7WO_pI59iYUC-61" value="" style="edgeStyle=orthogonalEdgeStyle;rounded=0;orthogonalLoop=1;jettySize=auto;html=1;" edge="1" parent="1" source="d0DCQELx7WO_pI59iYUC-58" target="d0DCQELx7WO_pI59iYUC-60">
          <mxGeometry relative="1" as="geometry" />
        </mxCell>
        <mxCell id="d0DCQELx7WO_pI59iYUC-58" value="Matching de marcas" style="whiteSpace=wrap;html=1;dashed=0;" vertex="1" parent="1">
          <mxGeometry x="130" y="480" width="120" height="60" as="geometry" />
        </mxCell>
        <mxCell id="d0DCQELx7WO_pI59iYUC-63" value="" style="edgeStyle=orthogonalEdgeStyle;rounded=0;orthogonalLoop=1;jettySize=auto;html=1;" edge="1" parent="1" source="d0DCQELx7WO_pI59iYUC-60" target="d0DCQELx7WO_pI59iYUC-62">
          <mxGeometry relative="1" as="geometry" />
        </mxCell>
        <mxCell id="d0DCQELx7WO_pI59iYUC-60" value="Normalizar pesos" style="whiteSpace=wrap;html=1;dashed=0;" vertex="1" parent="1">
          <mxGeometry x="130" y="620" width="120" height="60" as="geometry" />
        </mxCell>
        <mxCell id="d0DCQELx7WO_pI59iYUC-65" value="" style="edgeStyle=orthogonalEdgeStyle;rounded=0;orthogonalLoop=1;jettySize=auto;html=1;" edge="1" parent="1" source="d0DCQELx7WO_pI59iYUC-62" target="d0DCQELx7WO_pI59iYUC-64">
          <mxGeometry relative="1" as="geometry" />
        </mxCell>
        <mxCell id="d0DCQELx7WO_pI59iYUC-62" value="Matching de packs" style="whiteSpace=wrap;html=1;dashed=0;" vertex="1" parent="1">
          <mxGeometry x="360" y="620" width="120" height="60" as="geometry" />
        </mxCell>
        <mxCell id="d0DCQELx7WO_pI59iYUC-67" value="" style="edgeStyle=orthogonalEdgeStyle;rounded=0;orthogonalLoop=1;jettySize=auto;html=1;" edge="1" parent="1" source="d0DCQELx7WO_pI59iYUC-64" target="d0DCQELx7WO_pI59iYUC-66">
          <mxGeometry relative="1" as="geometry" />
        </mxCell>
        <mxCell id="d0DCQELx7WO_pI59iYUC-64" value="Matching de categorías" style="whiteSpace=wrap;html=1;dashed=0;" vertex="1" parent="1">
          <mxGeometry x="360" y="760" width="120" height="60" as="geometry" />
        </mxCell>
        <mxCell id="d0DCQELx7WO_pI59iYUC-69" value="" style="edgeStyle=orthogonalEdgeStyle;rounded=0;orthogonalLoop=1;jettySize=auto;html=1;" edge="1" parent="1" source="d0DCQELx7WO_pI59iYUC-66" target="d0DCQELx7WO_pI59iYUC-68">
          <mxGeometry relative="1" as="geometry" />
        </mxCell>
        <mxCell id="d0DCQELx7WO_pI59iYUC-66" value="Matching de productos" style="whiteSpace=wrap;html=1;dashed=0;" vertex="1" parent="1">
          <mxGeometry x="130" y="760" width="120" height="60" as="geometry" />
        </mxCell>
        <mxCell id="d0DCQELx7WO_pI59iYUC-71" style="edgeStyle=orthogonalEdgeStyle;rounded=0;orthogonalLoop=1;jettySize=auto;html=1;entryX=0.5;entryY=0.5;entryDx=0;entryDy=-15;entryPerimeter=0;" edge="1" parent="1" source="d0DCQELx7WO_pI59iYUC-68" target="50">
          <mxGeometry relative="1" as="geometry" />
        </mxCell>
        <mxCell id="d0DCQELx7WO_pI59iYUC-68" value="Almacenar productos y packs" style="whiteSpace=wrap;html=1;dashed=0;" vertex="1" parent="1">
          <mxGeometry x="130" y="900" width="120" height="60" as="geometry" />
        </mxCell>
      </root>
    </mxGraphModel>
  </diagram>
</mxfile>
